<?xml version="1.0" standalone="no"?>
<!DOCTYPE svg PUBLIC "-//W3C//DTD SVG 20010904//EN"
 "http://www.w3.org/TR/2001/REC-SVG-20010904/DTD/svg10.dtd">
<svg version="1.0" xmlns="http://www.w3.org/2000/svg"
 width="512.000000pt" height="512.000000pt" viewBox="0 0 512.000000 512.000000"
 preserveAspectRatio="xMidYMid meet">

<g transform="translate(0.000000,512.000000) scale(0.100000,-0.100000)"
fill="#7fffd4" stroke="none">
<path d="M1248 4470 c-219 -37 -419 -183 -522 -380 -209 -400 -12 -883 419
-1027 75 -25 93 -27 308 -31 l227 -4 0 -468 0 -468 -227 -4 c-215 -4 -233 -6
-308 -31 -316 -105 -523 -408 -502 -732 36 -542 624 -856 1092 -583 87 51 207
172 258 258 21 36 49 101 64 145 25 75 27 94 31 308 l4 227 469 0 469 0 0
-184 c0 -195 12 -287 49 -387 65 -171 226 -339 392 -406 99 -40 170 -54 280
-54 203 -1 365 66 509 211 161 160 234 366 209 585 -33 296 -242 539 -534 621
-45 13 -115 18 -277 21 l-218 5 0 468 0 468 218 5 c162 3 232 8 277 21 292 82
501 325 534 621 25 219 -48 425 -209 585 -97 98 -194 155 -324 190 -98 27
-252 29 -352 5 -200 -49 -382 -194 -474 -380 -64 -129 -72 -173 -77 -417 l-5
-218 -468 0 -468 0 -4 228 c-4 214 -6 232 -31 307 -67 201 -226 373 -414 450
-119 48 -272 65 -395 45z m260 -439 c55 -28 111 -89 141 -151 25 -52 26 -64
29 -248 l4 -194 -194 4 c-184 3 -196 4 -248 29 -149 71 -218 231 -165 388 20
63 90 142 150 171 85 41 204 42 283 1z m2378 7 c62 -29 123 -89 154 -153 36
-75 35 -189 -3 -267 -34 -70 -101 -130 -173 -158 -48 -17 -78 -20 -239 -20
l-185 0 0 183 c0 201 6 234 53 303 89 132 252 179 393 112z m-856 -1478 l0
-470 -470 0 -470 0 0 470 0 470 470 0 470 0 0 -470z m-1352 -1072 c-3 -184 -4
-196 -29 -248 -62 -130 -192 -201 -330 -179 -74 12 -132 44 -183 100 -109 121
-104 309 10 422 82 81 134 95 357 96 l179 1 -4 -192z m2210 164 c66 -35 119
-88 149 -150 38 -78 39 -192 3 -267 -31 -64 -91 -124 -155 -155 -75 -36 -189
-35 -267 3 -62 30 -115 83 -150 149 -21 40 -23 57 -26 246 l-3 203 203 -3
c189 -3 206 -5 246 -26z"/>
</g>
</svg>
